<?xml version="1.0" encoding="UTF-8" standalone="no"?>
<svg width="112px" height="63px" viewBox="0 0 112 63" version="1.1" xmlns="http://www.w3.org/2000/svg" xmlns:xlink="http://www.w3.org/1999/xlink">
    <defs></defs>
    <g stroke="none" stroke-width="1" fill="none" fill-rule="evenodd">
        <g>
            <g>
                <path d="M23.7259941,58.4748395 C22.009298,59.5011161 20.4737212,60.716249 18.7978306,61.6833819 C18.1721457,62.0449646 17.3073546,62.0160649 16.8964357,62.4240216 C16.8678002,62.6162384 16.8384489,62.8077832 16.8098134,63 C18.9861088,62.8622222 22.5505083,59.6993817 24.3309183,58.6388287 C29.2941603,55.6843351 34.7119903,53.1257006 40.4104478,50.9044537 C42.3913061,50.132898 48.2100326,48.9217976 49.2287393,47.53125 C47.0832271,47.6690278 44.8711374,48.6032285 43.0907274,49.2591852 C35.8867602,51.9112397 29.7501801,54.8724542 23.7259941,58.4748395 L23.7259941,58.4748395 L23.7259941,58.4748395 Z M55.6041733,42.1875 C53.3851212,42.8536292 51.1653531,43.0254905 48.946301,43.378539 C44.3771589,44.6688313 40.2913534,46.239564 36.2349062,47.9295338 C31.3786264,49.9532343 26.7629408,52.7030157 22.3993063,55.3015857 C20.5261084,56.5252651 18.6521944,57.7649315 16.7789966,58.9879448 C16.836997,58.7980979 16.8942813,58.6155785 16.9522817,58.4257317 C16.1395601,58.6235721 15.4736297,59.6907111 15.3089372,60.46875 C16.3608209,60.2276112 17.1599374,59.4129352 17.9898443,58.9213318 C20.1802542,57.5890734 22.3706641,56.2581473 24.561074,54.9258889 C30.4592127,51.431375 36.6058223,48.4950775 43.5844869,45.9557929 C46.4093208,45.2217185 49.0895118,44.4876442 51.9136297,43.7542359 C53.3127997,43.440489 55.1165403,43.5490681 55.8325946,42.5312227 L55.8325946,42.1875 L55.6041733,42.1875 L55.6041733,42.1875 L55.6041733,42.1875 Z M23.5967278,47.6359448 C24.8509082,47.3495348 25.8916417,47.0986746 26.754025,46.4433525 C28.3212134,45.2521018 29.1413372,35.5175171 28.6965364,31.8901049 C28.0468839,26.5911854 27.9623645,21.4941614 26.6730871,16.8592837 C25.6531253,13.1916266 24.0687466,9.90428422 22.6261883,6.67999232 C21.9242484,5.11110969 20.0633912,0.463487769 18.5792896,0 C18.4711335,0.10597839 18.3636937,0.21195678 18.2555377,0.31793517 C17.7799375,1.53199141 18.9495987,3.06398282 19.3077314,3.89705345 C20.5332612,6.745055 21.3999422,9.94050468 22.2214985,13.1218686 C23.2908825,17.2630748 23.5559006,21.64508 24.3258858,26.1639181 C24.4068238,27.9662215 24.4877617,29.7691956 24.5686997,31.5721697 C24.9017631,33.5502094 24.825839,36.3834545 24.4877617,38.3313105 C24.0515562,40.8452788 23.3925922,43.089606 23.0308782,45.3299087 C19.7324767,43.2633301 18.2977973,39.6171369 16.4749022,36.1050935 C13.4264773,29.9818231 10.377336,23.8572112 7.32891106,17.7346116 C6.20867219,15.5714451 3.37011294,8.49705218 0.707038687,8.42997725 C-0.442567064,10.3738087 0.155514432,16.2562801 0.155514432,19.1659906 L0.155514432,39.2857867 C0.871779697,41.6186528 0.464224762,43.9515189 0.545162737,46.2843849 C0.994261058,49.2256206 0.372542808,56.0102499 2.39885724,57.0203983 C4.79118323,57.8682254 5.47951415,51.1352439 5.10705621,48.7493886 C4.24252403,43.2157069 3.82207632,35.0392729 4.72027297,29.345282 C5.08485199,27.0338799 4.43591566,24.7144288 4.72958441,22.5854706 C4.83774047,22.5324814 4.95019412,22.4794922 5.05763391,22.426503 C7.08394834,23.9350182 8.04804139,27.7153612 9.10739771,30.14012 C11.244017,35.0318946 13.5940833,39.9464748 16.5544077,44.0574973 C18.0872153,46.1851141 19.7432206,48.5166386 23.5967278,47.6359448 L23.5967278,47.6359448 L23.5967278,47.6359448 Z" fill="#FFFFFF"></path>
                <path d="M33.1001343,29.2614217 L33.1001343,27.5850904 L31.7300558,27.5850904 L31.7300558,29.2614217 L33.1001343,29.2614217 L33.1001343,29.2614217 Z M31.7300558,30.7604488 L31.7300558,39.09375 L33.1001343,39.09375 L33.1001343,30.7604488 L31.7300558,30.7604488 L31.7300558,30.7604488 Z M35.2277857,30.7604488 L35.2277857,39.09375 L36.5978642,39.09375 L36.5978642,33.9035702 C36.5978642,33.7423836 36.6381602,33.5409035 36.7187535,33.2991238 C36.7993467,33.057344 36.928294,32.823627 37.1055992,32.5979659 C37.2829044,32.3723048 37.5139349,32.1788839 37.7986977,32.0176974 C38.0834606,31.8565109 38.4246336,31.7759188 38.822227,31.7759188 C39.1338543,31.7759188 39.3890624,31.8215876 39.5878591,31.9129267 C39.7866558,32.0042657 39.9451535,32.133213 40.063357,32.2997724 C40.1815604,32.4663318 40.2648389,32.6624391 40.3131948,32.8881002 C40.3615508,33.1137613 40.3857284,33.3609103 40.3857284,33.6295545 L40.3857284,39.09375 L41.7558069,39.09375 L41.7558069,33.9035702 C41.7558069,33.2588241 41.9492278,32.743035 42.3360755,32.3561874 C42.7229231,31.9693397 43.2548306,31.7759188 43.931814,31.7759188 C44.2649328,31.7759188 44.5362593,31.824274 44.7458018,31.9209859 C44.9553443,32.0176979 45.1192148,32.1493315 45.2374182,32.3158909 C45.3556217,32.4824503 45.4362137,32.6785576 45.4791968,32.9042188 C45.5221799,33.1298799 45.5436711,33.371656 45.5436711,33.6295545 L45.5436711,39.09375 L46.9137496,39.09375 L46.9137496,32.9848116 C46.9137496,32.5549809 46.8465896,32.1869439 46.7122675,31.8806895 C46.5779454,31.5744351 46.3898973,31.3245998 46.1481175,31.131176 C45.9063377,30.9377521 45.6162063,30.7953729 45.2777146,30.7040338 C44.939223,30.6126948 44.5604403,30.567026 44.1413554,30.567026 C43.5933212,30.567026 43.0909641,30.6906005 42.634269,30.9377531 C42.1775739,31.1849058 41.8095369,31.534138 41.5301469,31.9854602 C41.3582146,31.4696634 41.0627104,31.1043128 40.6436255,30.8893974 C40.2245406,30.674482 39.7571067,30.567026 39.2413098,30.567026 C38.0700212,30.567026 37.172763,31.0398327 36.5495085,31.9854602 L36.5172714,31.9854602 L36.5172714,30.7604488 L35.2277857,30.7604488 L35.2277857,30.7604488 Z M49.0252824,27.5850904 L49.0252824,39.09375 L50.3953609,39.09375 L50.3953609,37.9815686 L50.4275981,37.9815686 C50.5780388,38.2287213 50.7634005,38.4355742 50.9836888,38.6021336 C51.203977,38.768693 51.4376939,38.9003267 51.6848466,38.9970386 C51.9319992,39.0937505 52.1818346,39.1635969 52.4343601,39.20658 C52.6868857,39.2495631 52.9152298,39.2710543 53.1193994,39.2710543 C53.7533997,39.2710543 54.3094848,39.1582254 54.7876715,38.9325643 C55.2658582,38.7069032 55.6634456,38.397967 55.9804457,38.0057465 C56.2974459,37.6135259 56.5338492,37.1541513 56.6896629,36.6276086 C56.8454765,36.101066 56.9233821,35.5422945 56.9233821,34.9512773 C56.9233821,34.3602601 56.8427901,33.8014885 56.6816036,33.2749459 C56.5204171,32.7484033 56.2813273,32.2836558 55.9643272,31.8806895 C55.647327,31.4777232 55.2497396,31.1580414 54.7715529,30.9216345 C54.2933663,30.6852277 53.7319083,30.567026 53.0871623,30.567026 C52.5068908,30.567026 51.9749833,30.6717956 51.4914237,30.8813381 C51.0078642,31.0908806 50.6532592,31.4266808 50.4275981,31.8887488 L50.3953609,31.8887488 L50.3953609,27.5850904 L49.0252824,27.5850904 L49.0252824,27.5850904 Z M55.4727108,34.8545658 C55.4727108,35.262905 55.4297283,35.6604925 55.3437622,36.0473401 C55.257796,36.4341877 55.1181032,36.7780471 54.9246793,37.0789286 C54.7312555,37.3798101 54.4760474,37.6215863 54.1590472,37.8042643 C53.8420471,37.9869424 53.447146,38.07828 52.9743323,38.07828 C52.5015185,38.07828 52.0985582,37.9896288 51.7654394,37.8123236 C51.4323206,37.6350184 51.1609941,37.4013015 50.9514516,37.1111658 C50.7419091,36.8210301 50.5887842,36.4852298 50.4920723,36.1037551 C50.3953604,35.7222803 50.3470052,35.3273793 50.3470052,34.9190401 C50.3470052,34.5321925 50.392674,34.1507235 50.4840131,33.7746216 C50.5753521,33.3985197 50.7231042,33.0627195 50.9272738,32.7672109 C51.1314433,32.4717023 51.3947107,32.2326126 51.7170837,32.0499345 C52.0394568,31.8672565 52.4316714,31.7759188 52.8937394,31.7759188 C53.3343159,31.7759188 53.7184713,31.8618837 54.0462172,32.0338159 C54.3739631,32.2057482 54.6426033,32.4367788 54.8521458,32.7269145 C55.0616882,33.0170502 55.2174995,33.3474776 55.3195843,33.7182066 C55.4216691,34.0889356 55.4727108,34.4677182 55.4727108,34.8545658 L55.4727108,34.8545658 L55.4727108,34.8545658 Z M65.4339876,39.09375 L65.4339876,30.7604488 L64.0639091,30.7604488 L64.0639091,35.4670715 C64.0639091,35.8431734 64.0128674,36.1897192 63.9107826,36.5067194 C63.8086978,36.8237195 63.6555729,37.1004189 63.4514034,37.3368258 C63.2472338,37.5732327 62.9920256,37.755908 62.6857712,37.8848572 C62.3795169,38.0138064 62.0168526,38.07828 61.5977677,38.07828 C61.0712251,38.07828 60.6575192,37.9278415 60.3566377,37.62696 C60.0557562,37.3260786 59.9053178,36.9177455 59.9053178,36.4019487 L59.9053178,30.7604488 L58.5352392,30.7604488 L58.5352392,36.2407629 C58.5352392,36.6920852 58.5809081,37.1031046 58.6722471,37.4738336 C58.7635861,37.8445626 58.9220838,38.1642444 59.1477449,38.4328886 C59.373406,38.7015328 59.6689102,38.9083857 60.0342663,39.0534536 C60.3996224,39.1985214 60.8563107,39.2710543 61.4043449,39.2710543 C62.0168536,39.2710543 62.5487611,39.1501662 63.0000834,38.9083864 C63.4514056,38.6666067 63.822129,38.287824 64.1122648,37.7720272 L64.1445019,37.7720272 L64.1445019,39.09375 L65.4339876,39.09375 L65.4339876,39.09375 Z M68.3353303,36.4664229 L66.9652518,36.4664229 C66.9867434,36.9822198 67.0941994,37.4201033 67.2876232,37.7800865 C67.4810471,38.1400697 67.7389416,38.4302011 68.0613146,38.6504893 C68.3836877,38.8707775 68.7544111,39.0292752 69.173496,39.1259871 C69.592581,39.2226991 70.0331508,39.2710543 70.4952188,39.2710543 C70.9143038,39.2710543 71.3360688,39.2307583 71.7605267,39.150165 C72.1849845,39.0695717 72.5664535,38.9271925 72.9049452,38.7230229 C73.2434369,38.5188533 73.5174498,38.2502131 73.7269923,37.9170943 C73.9365348,37.5839755 74.0413044,37.1648969 74.0413044,36.6598458 C74.0413044,36.2622524 73.9633988,35.9291386 73.8075852,35.6604944 C73.6517715,35.3918502 73.447605,35.1688789 73.1950795,34.9915737 C72.9425539,34.8142685 72.6524226,34.6718892 72.3246766,34.5644316 C71.9969307,34.4569739 71.6611305,34.3656362 71.317266,34.2904159 C70.9948929,34.2151955 70.6725247,34.1426626 70.3501517,34.0728152 C70.0277787,34.0029677 69.7376473,33.9170028 69.4797489,33.814918 C69.2218505,33.7128332 69.0096247,33.583886 68.8430653,33.4280723 C68.6765059,33.2722587 68.5932275,33.0761514 68.5932275,32.8397445 C68.5932275,32.6248291 68.6469555,32.450213 68.7544132,32.3158909 C68.8618709,32.1815688 69.0015637,32.0741128 69.173496,31.9935195 C69.3454283,31.9129263 69.5361628,31.8565118 69.7457053,31.8242745 C69.9552478,31.7920372 70.1621007,31.7759188 70.3662703,31.7759188 C70.5919314,31.7759188 70.8149027,31.8000964 71.035191,31.8484524 C71.2554792,31.8968083 71.4569593,31.974714 71.6396374,32.0821717 C71.8223154,32.1896293 71.9727539,32.3320086 72.0909574,32.5093138 C72.2091608,32.6866189 72.2790073,32.9095903 72.3004988,33.1782345 L73.6705773,33.1782345 C73.63834,32.6731834 73.530884,32.2514183 73.3482059,31.9129267 C73.1655278,31.574435 72.9210653,31.3057948 72.6148109,31.1069981 C72.3085565,30.9082014 71.9566379,30.7685085 71.5590445,30.6879153 C71.1614511,30.607322 70.7262541,30.567026 70.2534403,30.567026 C69.8880842,30.567026 69.5200472,30.6126948 69.1493182,30.7040338 C68.7785892,30.7953729 68.4454754,30.9350657 68.1499668,31.1231167 C67.8544582,31.3111676 67.612682,31.5556302 67.4246311,31.8565117 C67.2365802,32.1573932 67.1425561,32.517371 67.1425561,32.9364559 C67.1425561,33.4737443 67.2768762,33.8928229 67.5455204,34.1937044 C67.8141646,34.4945859 68.1499648,34.7283029 68.5529311,34.8948623 C68.9558973,35.0614217 69.3937808,35.190369 69.8665946,35.281708 C70.3394084,35.373047 70.7772918,35.4751303 71.1802581,35.5879608 C71.5832244,35.7007914 71.9190246,35.8485435 72.1876688,36.0312215 C72.456313,36.2138996 72.5906331,36.4825397 72.5906331,36.8371501 C72.5906331,37.0950485 72.5261594,37.3072742 72.3972102,37.4738336 C72.268261,37.640393 72.1043905,37.7666539 71.9055938,37.85262 C71.7067971,37.9385862 71.4891986,37.997687 71.2527917,38.0299243 C71.0163848,38.0621616 70.7907271,38.07828 70.5758117,38.07828 C70.2964217,38.07828 70.0250952,38.051416 69.7618239,37.9976872 C69.4985526,37.9439583 69.2621492,37.8553071 69.0526068,37.7317308 C68.8430643,37.6081544 68.673821,37.4415975 68.5448718,37.2320551 C68.4159226,37.0225126 68.3460761,36.7673044 68.3353303,36.4664229 L68.3353303,36.4664229 L68.3353303,36.4664229 Z" fill="#FFFFFF"></path>
                <path d="M79,28 L79,39.5086596 L80.4506713,39.5086596 L80.4506713,30.2727185 L80.4829085,30.2727185 L86.4951354,39.5086596 L88.1714668,39.5086596 L88.1714668,28 L86.7207954,28 L86.7207954,37.3326525 L86.6885583,37.3326525 L80.6279756,28 L79,28 L79,28 Z M91.4274178,35.3500683 C91.4274178,34.8450172 91.4945778,34.3963882 91.6288998,34.0041676 C91.7632228,33.6119471 91.9485838,33.2815197 92.1849908,33.0128755 C92.4213978,32.7442313 92.6980968,32.5400648 93.0150978,32.4003698 C93.3320978,32.2606748 93.6678978,32.1908284 94.0225078,32.1908284 C94.3771188,32.1908284 94.7129188,32.2606748 95.0299188,32.4003698 C95.3469188,32.5400648 95.6236178,32.7442313 95.8600248,33.0128755 C96.0964318,33.2815197 96.2817938,33.6119471 96.4161158,34.0041676 C96.5504378,34.3963882 96.6175978,34.8450172 96.6175978,35.3500683 C96.6175978,35.8551194 96.5504378,36.3037485 96.4161158,36.695969 C96.2817938,37.0881895 96.0964318,37.4159305 95.8600248,37.6792018 C95.6236178,37.9424731 95.3469188,38.1439532 95.0299188,38.2836482 C94.7129188,38.4233432 94.3771188,38.4931896 94.0225078,38.4931896 C93.6678978,38.4931896 93.3320978,38.4233432 93.0150978,38.2836482 C92.6980968,38.1439532 92.4213978,37.9424731 92.1849908,37.6792018 C91.9485838,37.4159305 91.7632228,37.0881895 91.6288998,36.695969 C91.4945778,36.3037485 91.4274178,35.8551194 91.4274178,35.3500683 L91.4274178,35.3500683 L91.4274178,35.3500683 Z M89.9767468,35.3500683 C89.9767468,35.9625771 90.0627116,36.5320942 90.2346439,37.0586368 C90.4065762,37.5851794 90.6644707,38.0445541 91.0083348,38.4367746 C91.3521998,38.8289952 91.7766518,39.1352449 92.2817028,39.3555332 C92.7867538,39.5758214 93.3670158,39.6859639 94.0225078,39.6859639 C94.6887458,39.6859639 95.2716948,39.5758214 95.7713728,39.3555332 C96.2710508,39.1352449 96.6928158,38.8289952 97.0366808,38.4367746 C97.3805458,38.0445541 97.6384398,37.5851794 97.8103718,37.0586368 C97.9823048,36.5320942 98.0682698,35.9625771 98.0682698,35.3500683 C98.0682698,34.7375595 97.9823048,34.165356 97.8103718,33.6334405 C97.6384398,33.101525 97.3805458,32.6394639 97.0366808,32.2472434 C96.6928158,31.8550229 96.2710508,31.5460867 95.7713728,31.3204256 C95.2716948,31.0947645 94.6887458,30.9819356 94.0225078,30.9819356 C93.3670158,30.9819356 92.7867538,31.0947645 92.2817028,31.3204256 C91.7766518,31.5460867 91.3521998,31.8550229 91.0083348,32.2472434 C90.6644707,32.6394639 90.4065762,33.101525 90.2346439,33.6334405 C90.0627116,34.165356 89.9767468,34.7375595 89.9767468,35.3500683 L89.9767468,35.3500683 L89.9767468,35.3500683 Z M101.582118,31.1753584 L101.582118,28.6769799 L100.212039,28.6769799 L100.212039,31.1753584 L98.7936048,31.1753584 L98.7936048,32.3842513 L100.212039,32.3842513 L100.212039,37.6872611 C100.212039,38.0741087 100.249649,38.3857313 100.324869,38.6221382 C100.40009,38.8585451 100.515605,39.0412204 100.671419,39.1701696 C100.827232,39.2991188 101.031399,39.3877701 101.283924,39.436126 C101.53645,39.484482 101.840013,39.5086596 102.194624,39.5086596 L103.242331,39.5086596 L103.242331,38.2997668 L102.613707,38.2997668 C102.398791,38.2997668 102.224175,38.2917076 102.089853,38.2755889 C101.955531,38.2594703 101.850761,38.2245471 101.775541,38.1708182 C101.70032,38.1170894 101.649279,38.0418701 101.622414,37.9451582 C101.59555,37.8484463 101.582118,37.719499 101.582118,37.5583125 L101.582118,32.3842513 L103.242331,32.3842513 L103.242331,31.1753584 L101.582118,31.1753584 L101.582118,31.1753584 Z M110.544043,34.5441398 L105.756828,34.5441398 C105.778319,34.2217667 105.848166,33.9182033 105.966369,33.6334405 C106.084573,33.3486777 106.245757,33.0988423 106.449926,32.883927 C106.654096,32.6690116 106.898559,32.4997683 107.183321,32.376192 C107.468084,32.2526156 107.787766,32.1908284 108.142376,32.1908284 C108.486241,32.1908284 108.80055,32.2526156 109.085313,32.376192 C109.370076,32.4997683 109.617225,32.6663252 109.826767,32.8758677 C110.03631,33.0854101 110.202866,33.3352455 110.326443,33.6253812 C110.450019,33.9155169 110.522552,34.2217667 110.544043,34.5441398 L110.544043,34.5441398 L110.544043,34.5441398 Z M111.865766,36.865214 L110.511806,36.865214 C110.393603,37.4132481 110.14914,37.8215812 109.778411,38.0902254 C109.407682,38.3588696 108.932189,38.4931896 108.351918,38.4931896 C107.900596,38.4931896 107.508381,38.4179704 107.175262,38.2675296 C106.842143,38.1170889 106.56813,37.9156088 106.353215,37.6630832 C106.1383,37.4105577 105.982488,37.1204263 105.885776,36.7926804 C105.789065,36.4649345 105.746082,36.1183887 105.756828,35.7530326 L111.994715,35.7530326 C112.016206,35.2479815 111.970538,34.716074 111.857707,34.1572941 C111.744876,33.5985141 111.54071,33.082725 111.245201,32.6099112 C110.949693,32.1370975 110.557478,31.7475692 110.068546,31.4413149 C109.579613,31.1350605 108.964427,30.9819356 108.222969,30.9819356 C107.653444,30.9819356 107.129595,31.0893916 106.651409,31.304307 C106.173222,31.5192224 105.759516,31.8200993 105.410279,32.206947 C105.061041,32.5937946 104.789715,33.0504829 104.596291,33.5770255 C104.402867,34.1035681 104.306156,34.6838309 104.306156,35.3178312 C104.327648,35.9518315 104.421672,36.537467 104.588231,37.0747554 C104.754791,37.6120438 105.004626,38.0741049 105.337745,38.4609525 C105.670864,38.8478001 106.081883,39.1486771 106.570816,39.3635925 C107.059748,39.5785078 107.637324,39.6859639 108.303562,39.6859639 C109.24919,39.6859639 110.033619,39.4495605 110.656873,38.9767468 C111.280128,38.503933 111.683088,37.8000958 111.865766,36.865214 L111.865766,36.865214 L111.865766,36.865214 Z" fill="#009FB7"></path>
            </g>
        </g>
    </g>
</svg>