<?xml version="1.0" encoding="utf-8"?>
<!-- Generator: Adobe Illustrator 16.0.0, SVG Export Plug-In . SVG Version: 6.00 Build 0)  -->
<!DOCTYPE svg PUBLIC "-//W3C//DTD SVG 1.1//EN" "http://www.w3.org/Graphics/SVG/1.1/DTD/svg11.dtd">
<svg version="1.1" id="Layer_1" xmlns="http://www.w3.org/2000/svg" xmlns:xlink="http://www.w3.org/1999/xlink" x="0px" y="0px"
	 width="16px" height="14px" viewBox="0 0 16 14" enable-background="new 0 0 16 14" xml:space="preserve">
<path opacity="0.3" fill="#37474F" d="M10.7,7c0-0.9-0.7-1.6-1.5-1.6C8.3,5.4,7.6,6.1,7.6,7c0,0.9,0.7,1.6,1.5,1.6
	C10,8.6,10.7,7.9,10.7,7z M9.1,0C5.4,0,2.3,3.1,2.3,7H0l3,3.1l3-3.1H3.8c0-3,2.4-5.4,5.3-5.4c2.9,0,5.3,2.4,5.3,5.4
	s-2.4,5.4-5.3,5.4c-1.2,0-2.2-0.4-3.1-1L5,12.6C6.1,13.5,7.6,14,9.1,14c3.8,0,6.9-3.1,6.9-7C16,3.1,12.9,0,9.1,0z"/>
</svg>
