<?xml version="1.0" encoding="utf-8"?>
<!-- Generator: Adobe Illustrator 16.0.0, SVG Export Plug-In . SVG Version: 6.00 Build 0)  -->
<!DOCTYPE svg PUBLIC "-//W3C//DTD SVG 1.1//EN" "http://www.w3.org/Graphics/SVG/1.1/DTD/svg11.dtd">
<svg version="1.1" id="Layer_1" xmlns="http://www.w3.org/2000/svg" xmlns:xlink="http://www.w3.org/1999/xlink" x="0px" y="0px"
	 width="19.5px" height="20px" viewBox="0 0 19.5 20" enable-background="new 0 0 19.5 20" xml:space="preserve">
<path fill="#37474F" d="M17.2,11c0-0.3,0.1-0.6,0.1-1s0-0.7-0.1-1l2.1-1.6c0.2-0.2,0.2-0.4,0.1-0.6l-2-3.5C17.3,3,17,3,16.8,3
	l-2.5,1c-0.5-0.4-1.1-0.7-1.7-1l-0.4-2.7C12.2,0.2,12,0,11.7,0h-4C7.5,0,7.3,0.2,7.2,0.4L6.9,3.1C6.2,3.3,5.7,3.7,5.2,4L2.7,3
	C2.5,3,2.2,3,2.1,3.3l-2,3.5C-0.1,7,0,7.2,0.2,7.4L2.3,9c0,0.3-0.1,0.7-0.1,1s0,0.7,0.1,1l-2.1,1.6C0,12.8,0,13,0.1,13.3l2,3.5
	C2.2,17,2.5,17,2.7,17l2.5-1c0.5,0.4,1.1,0.7,1.7,1l0.4,2.7c0,0.2,0.2,0.4,0.5,0.4h4c0.3,0,0.5-0.2,0.5-0.4l0.4-2.7
	c0.6-0.3,1.2-0.6,1.7-1l2.5,1c0.2,0.1,0.5,0,0.6-0.2l2-3.5c0.1-0.2,0.1-0.5-0.1-0.6L17.2,11z M9.7,13.5c-1.9,0-3.5-1.6-3.5-3.5
	s1.6-3.5,3.5-3.5c1.9,0,3.5,1.6,3.5,3.5S11.7,13.5,9.7,13.5z"/>
</svg>
