<svg viewBox="0 0 16 16" xmlns="http://www.w3.org/2000/svg"><g fill-rule="nonzero" fill="none"><path d="M16 1.263v13.474c0 .698-.565 1.263-1.263 1.263H1.263A1.263 1.263 0 0 1 0 14.737V1.263C0 .565.565 0 1.263 0h13.474C15.435 0 16 .565 16 1.263z" fill="#00838F"/><path d="M16 10.105v4.632c0 .698-.565 1.263-1.263 1.263h-4.64L2.106 8.014l1.97-1.97 3.916 3.91 1.968-1.968-3.924-3.915L8 2.105l8 8z" fill-opacity=".1" fill="#000"/><path d="M4.052 9.957L2.105 8.014l1.97-1.97 1.947 1.942-1.97 1.97zM8 13.895L6.025 11.92 9.96 7.986 6.035 4.071 8 2.105 13.895 8 8 13.895z" fill="#F5F5F5"/></g></svg>