<svg viewBox="0 0 16 16" xmlns="http://www.w3.org/2000/svg"><g fill="none" fill-rule="evenodd"><path d="M16 9.74c0-2.137-1.685-3.883-3.767-3.883h-1.258C10.2 3.612 8.108 2 5.65 2 2.528 2 0 4.607 0 7.813c0 3.205 2.528 5.812 5.65 5.812h6.583c2.082 0 3.767-1.747 3.767-3.884" fill="#4285F4" fill-rule="nonzero"/><path d="M9.602 11.18L7.958 9.484a3.13 3.13 0 0 0 .55-1.78c0-1.7-1.335-3.078-2.982-3.078-1.646 0-2.98 1.378-2.98 3.079 0 1.7 1.334 3.079 2.98 3.079a2.9 2.9 0 0 0 1.635-.505l1.656 1.711a.357.357 0 0 0 .515 0l.27-.278a.385.385 0 0 0 0-.53zM5.526 9.646c-1.038 0-1.879-.869-1.879-1.94 0-1.072.842-1.94 1.88-1.94 1.038 0 1.878.868 1.878 1.94 0 1.071-.84 1.94-1.879 1.94z" fill="#F5F5F5"/><path d="M8.125 6.5v.004c.218.427.341.913.341 1.43 0 .662-.203 1.276-.549 1.779l1.644 1.698c.14.145.14.384 0 .53l-.27.278a.357.357 0 0 1-.515 0L7.12 10.508a2.897 2.897 0 0 1-3.483-.16l3.35 3.455h5.082c.88 0 1.688-.313 2.33-.834L8.124 6.5z" fill-opacity=".1" fill="#000" fill-rule="nonzero"/></g></svg>