<svg viewBox="0 0 16 16" xmlns="http://www.w3.org/2000/svg"><g fill-rule="nonzero" fill="none"><circle fill="#4285F4" cx="8" cy="8" r="8"/><path d="M7.545 11.636c.035-.502.293-.941.675-1.223h-.004a3.267 3.267 0 0 1 1.16-.557c.193-.051.529-.116.879-.157 1.243-.144 1.965-1.018 2.105-2.247l.137-.96a.363.363 0 0 1 .36-.311h.508c.22.002.389.195.359.414L13.394 9a.623.623 0 0 1-.12.292l-.831 1.203c-.06.08-.174.194-.174.44v.699H7.545v.001zm2.819-2.909a1.273 1.273 0 1 1 0-2.545 1.273 1.273 0 0 1 0 2.545z" fill="#7BAAF7"/><path d="M10.545 11.636H4.364v-.679c0-.332-.155-.486-.236-.593L2.788 8.47a.852.852 0 0 1-.162-.395l-.429-3.158c-.01-.086-.02-.13-.01-.226a.364.364 0 0 1 .361-.327H3.48c.18 0 .335.133.36.311l.184 1.304c.19 1.662 1.167 2.845 2.85 3.038.473.055.927.143 1.188.213.62.166 1.17.437 1.57.752h-.005c.517.38.872.975.918 1.654zm-3.818-4a1.636 1.636 0 1 1 0-3.272 1.636 1.636 0 0 1 0 3.272z" fill="#F5F5F5"/><path d="M14.97 11.93a7.999 7.999 0 0 1-6.274 4.04l-4.332-4.334h6.181a2.252 2.252 0 0 0-.918-1.654h.004c-.4-.314-.95-.586-1.57-.751a6.482 6.482 0 0 0-.52-.113L5.67 7.25A1.636 1.636 0 0 0 7.938 4.9h.002l7.03 7.03z" fill-opacity=".1" fill="#000"/></g></svg>