<svg viewBox="0 0 16 16" xmlns="http://www.w3.org/2000/svg"><g fill="none" fill-rule="evenodd"><path d="M13.703 2.756a.52.52 0 0 1 .636.225l1.177 2.037a.525.525 0 0 1-.123.663l-1.117.863c-.194.15-.35.473-.35.706v1.5c0 .24.155.555.35.706l1.117.862a.52.52 0 0 1 .123.663l-1.177 2.037a.525.525 0 0 1-.636.224l-1.304-.535a1.023 1.023 0 0 0-.786.05l-1.3.75c-.208.12-.403.411-.436.656l-.189 1.398a.52.52 0 0 1-.512.439H6.823a.525.525 0 0 1-.512-.439l-.189-1.398a1.022 1.022 0 0 0-.435-.656l-1.3-.75a1.003 1.003 0 0 0-.786-.05l-1.305.535a.52.52 0 0 1-.636-.224L.484 10.981a.525.525 0 0 1 .124-.663l1.115-.862c.194-.15.35-.473.35-.706v-1.5c0-.24-.154-.555-.35-.706L.608 5.681a.52.52 0 0 1-.124-.663L1.66 2.982a.525.525 0 0 1 .636-.224l1.305.535c.226.093.584.067.786-.05l1.3-.75c.208-.12.402-.411.435-.656L6.311.439A.52.52 0 0 1 6.823 0h2.353c.25 0 .48.194.512.439l.189 1.398c.032.242.234.54.436.656l1.3.75c.208.12.557.143.786.05l1.304-.537z" fill="#9E9E9E"/><path d="M9.714 15.37l-4.542-4.542 5.656-5.656 3.098 3.097v.481c0 .24.155.555.35.706l1.117.862a.52.52 0 0 1 .123.663l-1.177 2.037a.525.525 0 0 1-.636.224l-1.304-.535a1.023 1.023 0 0 0-.786.05l-1.3.75c-.208.12-.403.411-.436.656l-.163 1.208z" fill-opacity=".1" fill="#000"/><path d="M11.345 10.182s-7.8-4.455-6.981-.51A3.986 3.986 0 0 0 8 12a3.988 3.988 0 0 0 3.345-1.799v-.02z" fill="#255FDB" fill-rule="nonzero"/><path d="M12 8c0 .185-.012.368-.037.546C11.182 12.364 4.11 6.327 4 8c0-.97.34-1.856.91-2.546 1.454-1.272 2.545-1.181 2.545-1.181s3.994 4.128 4.541 3.55C12 7.88 12 7.94 12 8z" fill="#91BFFF"/><path d="M11.345 10.201c.32-.487.537-1.049.618-1.655-.291 1.345-2.327 2.035-3.963-.473C6.11 5.2 4.11 6.327 4 8a4.007 4.007 0 0 0 .364 1.673c-.255-1.164.981-2.037 2.363-.218 1.637 2.145 3.673 1.89 4.618.727v.019z" fill="#4285F4" fill-rule="nonzero"/><path d="M6.75 4.197A4.027 4.027 0 0 1 8 4c1.828 0 3.36 1.21 3.842 2.877C11.09 8 6.75 4.197 6.75 4.197z" fill="#F5F5F5" fill-rule="nonzero"/><path d="M4.91 5.454c1.454-1.272 2.945-.945 4.326 1.382 1.125 1.778 2.213 1.565 2.76.986a4.022 4.022 0 0 0-.154-.945c-.467.14-.83.097-1.406-.804C9.598 4.78 8.391 3.79 6.751 4.197a3.981 3.981 0 0 0-1.842 1.257z" fill="#C4E1FF" fill-rule="nonzero"/></g></svg>