<svg viewBox="0 0 16 16" xmlns="http://www.w3.org/2000/svg"><g fill="none" fill-rule="evenodd"><path d="M14.69 12.364S-.91 3.454.728 11.345A7.972 7.972 0 0 0 8 16a7.976 7.976 0 0 0 6.69-3.598v-.038z" fill="#255FDB" fill-rule="nonzero"/><path d="M16 8c0 .37-.025.736-.073 1.093C14.364 16.727.218 4.655 0 8c0-1.94.681-3.712 1.818-5.093C4.728.364 6.91.545 6.91.545s7.99 8.257 9.083 7.1c.005.117.008.236.008.355z" fill="#91BFFF"/><path d="M14.69 12.402a7.957 7.957 0 0 0 1.237-3.309c-.584 2.69-4.655 4.07-7.927-.948C4.218 2.4.218 4.655 0 8a8.02 8.02 0 0 0 .735 3.369.125.125 0 0 0-.008-.024c-.509-2.327 1.964-4.072 4.728-.436 3.272 4.291 7.345 3.782 9.236 1.455v.038z" fill="#4285F4" fill-rule="nonzero"/><path d="M5.501.394A8.054 8.054 0 0 1 8 0a7.976 7.976 0 0 1 7.683 5.753C14.182 8 5.501.394 5.501.394z" fill="#F5F5F5" fill-rule="nonzero"/><path d="M1.818 2.907C4.728.364 7.71 1.018 10.473 5.673c2.249 3.555 4.426 3.129 5.52 1.972a8.043 8.043 0 0 0-.31-1.892c-.933.282-1.657.194-2.81-1.608C11.196 1.561 8.783-.42 5.5.395a7.963 7.963 0 0 0-3.683 2.512z" fill="#C4E1FF" fill-rule="nonzero"/></g></svg>