<svg viewBox="0 0 16 16" xmlns="http://www.w3.org/2000/svg"><g fill-rule="nonzero" fill="none"><path d="M8 0a4 4 0 0 0-4 4v2.184h1.818V4a2.182 2.182 0 0 1 4.364 0v2.182H12V4a4 4 0 0 0-4-4z" fill="#BDBDBD"/><path fill="#FFC107" d="M12.727 16H3.273l-.728-5.09.728-5.455h9.454l.728 5.454z"/><path d="M13.09 16h-.363V5.455h.364c.603 0 1.09.488 1.09 1.09v8.364A1.09 1.09 0 0 1 13.092 16z" fill="#FFA726"/><path d="M2.91 5.455h.363V16h-.364a1.09 1.09 0 0 1-1.09-1.09V6.544c0-.602.487-1.09 1.09-1.09z" fill="#FDD835"/><path fill="#F5F5F5" d="M11.055 7.636L6.91 11.783 4.942 9.818l-.836.833 2.803 2.804 4.982-4.983z"/><path d="M14.182 10.763v4.146A1.09 1.09 0 0 1 13.09 16H9.455l-2.546-2.545 4.982-4.983 2.29 2.29z" fill-opacity=".1" fill="#BF360C"/></g></svg>