<svg viewBox="0 0 16 16" xmlns="http://www.w3.org/2000/svg"><g fill-rule="nonzero" fill="none"><path fill="#34A853" d="M8 10.901l.285 1.589 1.592.569 4.516-5.19-.265-1.833h-1.894L8 10.9z"/><path d="M6.585 9.276l-1.709.397-.168 1.76 2.742 3.15a.725.725 0 0 0 .55.247.727.727 0 0 0 .552-.248l1.326-1.523-3.293-3.783z" fill="#FBBC05"/><path d="M6.585 9.275l-2.82-3.24C4.953 5.223 6.427 4.777 8 4.777l.764-1.474L8 2.003c-3.147 0-5.949 1.309-7.75 3.434a.673.673 0 0 0 .009.883l4.45 5.113 1.876-2.158z" fill="#4285F4"/><path d="M15.75 5.437C13.948 3.312 11.146 2.003 8 2.003v2.774c.089 0 .177.001.265.004 1.473.048 2.849.488 3.97 1.253a10.3 10.3 0 0 1 2.158 1.835l1.349-1.55a.674.674 0 0 0 .007-.882z" fill="#EA4335"/></g></svg>