<svg viewBox="0 0 32 32" xmlns="http://www.w3.org/2000/svg"><g fill-rule="nonzero" fill="none"><path d="M28 5.895v20.21A1.894 1.894 0 0 1 26.105 28H5.895A1.894 1.894 0 0 1 4 26.105V5.895C4 4.848 4.848 4 5.895 4h20.21C27.152 4 28 4.848 28 5.895z" fill="#00838F"/><path d="M28 19.158v6.947A1.894 1.894 0 0 1 26.105 28h-6.958L7.157 16.02l2.957-2.955 5.872 5.867 2.952-2.953-5.886-5.873L16 7.158l12 12z" fill-opacity=".1" fill="#000"/><path d="M10.077 18.935l-2.92-2.914 2.957-2.956 2.92 2.914-2.957 2.956zM16 24.842l-2.962-2.962 5.9-5.9-5.886-5.874L16 7.158 24.842 16 16 24.842z" fill="#F5F5F5"/></g></svg>