<svg viewBox="0 0 32 32" xmlns="http://www.w3.org/2000/svg"><g fill="none" fill-rule="evenodd"><path d="M30.667 19.098c0-3.8-3.09-6.905-6.907-6.905h-2.305a10.36 10.36 0 0 0-9.763-6.856c-5.724 0-10.359 4.635-10.359 10.333s4.635 10.333 10.359 10.333H23.76c3.817 0 6.907-3.105 6.907-6.905" fill="#4285F4" fill-rule="nonzero"/><path d="M19.163 21.75l-3.013-3.018a5.448 5.448 0 0 0 1.007-3.164 5.469 5.469 0 0 0-5.465-5.473 5.469 5.469 0 0 0-5.465 5.473 5.469 5.469 0 0 0 5.465 5.474c1.106 0 2.135-.33 2.996-.897l3.037 3.042c.26.26.683.26.943 0l.495-.495a.669.669 0 0 0 0-.942zm-7.471-2.73a3.447 3.447 0 0 1-3.445-3.45 3.448 3.448 0 0 1 3.445-3.45 3.447 3.447 0 0 1 3.445 3.45 3.447 3.447 0 0 1-3.445 3.45z" fill="#F5F5F5"/><path d="M16.532 13.02c.398.767.625 1.63.625 2.548 0 1.179-.374 2.27-1.007 3.164l3.013 3.018a.669.669 0 0 1 0 .942l-.495.495a.668.668 0 0 1-.943 0l-3.037-3.042c-.86.567-1.89.897-2.996.897a5.436 5.436 0 0 1-3.389-1.18l6.14 6.141h9.319a6.872 6.872 0 0 0 4.27-1.483l-11.5-11.5z" fill-opacity=".1" fill="#000" fill-rule="nonzero"/></g></svg>