<svg viewBox="0 0 32 32" xmlns="http://www.w3.org/2000/svg"><g fill-rule="nonzero" fill="none"><circle fill="#4285F4" cx="16" cy="16" r="14"/><path d="M15.205 22.364c.06-.88.512-1.649 1.18-2.142h-.006c.515-.407 1.228-.759 2.03-.973.337-.091.924-.204 1.536-.276 2.177-.251 3.44-1.781 3.685-3.932l.24-1.679a.636.636 0 0 1 .63-.545l.888.001c.385.002.68.34.628.722l-.576 4.212a1.09 1.09 0 0 1-.21.51l-1.455 2.107c-.105.138-.304.338-.304.768v1.223h-8.266v.004zm4.931-5.091a2.227 2.227 0 1 1 0-4.455 2.227 2.227 0 0 1 0 4.455z" fill="#7BAAF7"/><path d="M20.455 22.364H9.636v-1.189c0-.58-.27-.85-.412-1.039L6.88 16.823a1.49 1.49 0 0 1-.283-.693l-.75-5.525c-.018-.15-.036-.229-.02-.396a.637.637 0 0 1 .633-.573H8.09c.317 0 .585.234.63.546l.321 2.281c.334 2.909 2.043 4.978 4.988 5.317.829.096 1.623.25 2.08.372 1.084.292 2.048.766 2.747 1.316h-.008a3.94 3.94 0 0 1 1.607 2.896zm-6.682-7a2.864 2.864 0 1 1 0-5.728 2.864 2.864 0 0 1 0 5.728z" fill="#F5F5F5"/><path d="M28.196 22.878c-2.215 3.918-6.262 6.662-10.977 7.068l-7.583-7.582h10.819a3.94 3.94 0 0 0-1.607-2.896c-.692-.549-1.656-1.024-2.741-1.314-.231-.062-.546-.132-.91-.197l-3.271-3.27a2.864 2.864 0 0 0 3.966-4.113l12.304 12.304z" fill-opacity=".1" fill="#000"/></g></svg>