<svg viewBox="0 0 32 32" xmlns="http://www.w3.org/2000/svg"><g fill-rule="nonzero" fill="none"><path d="M16 0a8 8 0 0 0-8 8v4.367h3.636V8a4.365 4.365 0 0 1 8.728 0v4.364H24V8a8 8 0 0 0-8-8z" fill="#BDBDBD"/><path fill="#FFC107" d="M25.455 32H6.545L5.091 21.818 6.545 10.91h18.91l1.454 10.91z"/><path d="M26.182 32h-.727V10.91h.727c1.205 0 2.182.975 2.182 2.18v16.728A2.181 2.181 0 0 1 26.182 32z" fill="#FFA726"/><path d="M5.818 10.91h.727V32h-.727a2.181 2.181 0 0 1-2.182-2.182V13.091c0-1.206.977-2.182 2.182-2.182z" fill="#FDD835"/><path fill="#F5F5F5" d="M22.11 15.273l-8.292 8.292-3.934-3.929-1.671 1.666 5.605 5.607 9.964-9.965z"/><path d="M28.364 21.525v8.293A2.181 2.181 0 0 1 26.182 32h-7.273l-5.09-5.09 9.963-9.966 4.582 4.581z" fill-opacity=".1" fill="#BF360C"/></g></svg>