<svg viewBox="0 0 32 32" xmlns="http://www.w3.org/2000/svg"><g fill-rule="nonzero" fill="none"><path fill="#34A853" d="M16 20.115l.534 3.055 2.985 1.093 8.468-9.978-.498-3.527h-3.55L16 20.113z"/><path d="M13.347 16.988l-3.204.765-.315 3.384 5.14 6.056c.27.319.651.477 1.034.477.38 0 .763-.158 1.033-.477l2.486-2.93-6.174-7.275z" fill="#FBBC05"/><path d="M13.347 16.987l-5.287-6.23c2.227-1.562 4.99-2.42 7.94-2.42l1.433-2.834L16 3.003c-5.9 0-11.154 2.517-14.53 6.604a1.32 1.32 0 0 0 .015 1.698l8.343 9.832 3.52-4.15z" fill="#4285F4"/><path d="M30.53 9.607C27.154 5.52 21.9 3.003 16 3.003v5.334c.167 0 .332.003.497.008 2.763.092 5.341.938 7.443 2.41 1.458.94 2.816 2.128 4.047 3.528l2.53-2.98a1.32 1.32 0 0 0 .013-1.696z" fill="#EA4335"/></g></svg>